<svg xmlns="http://www.w3.org/2000/svg" version="1.1" xmlns:xlink="http://www.w3.org/1999/xlink" xmlns:svgjs="http://svgjs.com/svgjs" width="1442" height="561" preserveAspectRatio="none" viewBox="0 0 1442 561"><g mask="url(&quot;#SvgjsMask1006&quot;)" fill="none"><rect width="1442" height="561" x="0" y="0" fill="rgba(2, 25, 0, 1)"></rect><path d="M1032.35-88.88C892.39-31.46 954.94 397.62 676.99 400.92 399.04 404.22 149.19 228.27-33.73 227.01" stroke="rgba(237, 255, 233, 1)" stroke-width="2"></path><path d="M798.16-78.51C662.75-55.23 620.32 262.68 380.68 278.94 141.04 295.2 71.64 395.63-36.8 396.75" stroke="rgba(237, 255, 233, 1)" stroke-width="2"></path><path d="M1093.93-98.59C911.25-93.96 779.03 156.94 412.8 166.68 46.57 176.42-84.77 436.45-268.33 441.57" stroke="rgba(237, 255, 233, 1)" stroke-width="2"></path><path d="M627.78-26.44C527.53 15.78 603.22 303.93 375.06 327.74 146.9 351.55 2.35 488.44-130.38 490.43" stroke="rgba(237, 255, 233, 1)" stroke-width="2"></path><path d="M1108.31-2.18C932.19 6.01 794.87 307.66 474.99 308.12 155.1 308.58 3.24 179.74-158.34 179.09" stroke="rgba(237, 255, 233, 1)" stroke-width="2"></path></g><defs><mask id="SvgjsMask1006"><rect width="1442" height="561" fill="#ffffff"></rect></mask></defs></svg>