<svg xmlns="http://www.w3.org/2000/svg" version="1.1" xmlns:xlink="http://www.w3.org/1999/xlink" xmlns:svgjs="http://svgjs.com/svgjs" width="1442" height="561" preserveAspectRatio="none" viewBox="0 0 1442 561"><g mask="url(&quot;#SvgjsMask1007&quot;)" fill="none"><rect width="1442" height="561" x="0" y="0" fill="rgba(2, 25, 0, 1)"></rect><path d="M1655.48 173.78C1461.05 174.36 1184.8 315.7 890.51 314.03 596.21 312.36 642.53-54.35 508.02-89.13" stroke="rgba(237, 255, 233, 1)" stroke-width="2"></path><path d="M1504.65 230.32C1309.09 233.76 1048.53 484.22 764.16 482.77 479.78 481.32 538.2 41.89 393.91-14.98" stroke="rgba(237, 255, 233, 1)" stroke-width="2"></path><path d="M1457.97 389.3C1318.49 385.49 1221.13 190.7 939.87 181.73 658.6 172.76 563.59-45.11 421.76-50.33" stroke="rgba(237, 255, 233, 1)" stroke-width="2"></path><path d="M1521.59 257.04C1405.37 256.84 1291.81 186.91 1062.03 186.91 832.25 186.91 840.1 259.07 602.46 257.04 364.83 255.01 281.11-41.24 142.9-55.59" stroke="rgba(237, 255, 233, 1)" stroke-width="2"></path><path d="M1706.13 189.73C1594.71 191.77 1503.18 337.63 1284.9 335.59 1066.62 333.55 1002.33-13.88 863.67-39.75" stroke="rgba(237, 255, 233, 1)" stroke-width="2"></path></g><defs><mask id="SvgjsMask1007"><rect width="1442" height="561" fill="#ffffff"></rect></mask></defs></svg>