<svg xmlns="http://www.w3.org/2000/svg" version="1.1" xmlns:xlink="http://www.w3.org/1999/xlink" xmlns:svgjs="http://svgjs.com/svgjs" width="1442" height="561" preserveAspectRatio="none" viewBox="0 0 1442 561"><g mask="url(&quot;#SvgjsMask1009&quot;)" fill="none"><rect width="1442" height="561" x="0" y="0" fill="rgba(2, 25, 0, 1)"></rect><path d="M463.13 670.76C618.47 652.94 716.25 308.7 972.95 308.49 1229.66 308.28 1341.9 543.73 1482.78 549.72" stroke="rgba(237, 255, 233, 1)" stroke-width="2"></path><path d="M132.7 611.07C326.41 604.96 472.63 314.46 846.74 309.26 1220.86 304.06 1378.59 164.14 1560.79 163.4" stroke="rgba(237, 255, 233, 1)" stroke-width="2"></path><path d="M680.76 584.56C785.4 534.82 738.74 199.14 935.99 197.72 1133.24 196.3 1309.76 390.72 1446.45 394.07" stroke="rgba(237, 255, 233, 1)" stroke-width="2"></path><path d="M838.31 569.24C963.75 545.63 1020.57 231.01 1218.77 228.74 1416.96 226.47 1499.66 345.21 1599.22 346.55" stroke="rgba(237, 255, 233, 1)" stroke-width="2"></path><path d="M212.25 626.96C398.4 612 503.24 249.16 849.89 237.83 1196.54 226.5 1323.36 81.9 1487.53 80.75" stroke="rgba(237, 255, 233, 1)" stroke-width="2"></path></g><defs><mask id="SvgjsMask1009"><rect width="1442" height="561" fill="#ffffff"></rect></mask></defs></svg>